<svg width="464" height="440" viewBox="0 0 464 440" fill="none"
    xmlns="http://www.w3.org/2000/svg">
    <path d="M400 439.875H192L208 231.875H384.5L400 439.875Z" fill="#F7B030"/>
    <path d="M136 119.875H120C120 110.541 120 93.6748 120 72.8748C120 -22.6251 264 -21.6251 264 72.8749C264 96.4749 264 111.708 264 119.875H248V72.8748C248 -3.12506 136 -3.12506 136 72.8748V119.875Z" fill="#DADCDE"/>
    <path d="M325.5 231.875H302L296 119.875H320.5L325.5 231.875Z" fill="#D13330"/>
    <path d="M72.0001 153.875V119.875L72 75.3752C72 -25.1251 216 -25.1251 216 75.3752L216 119.875C216.167 127.875 216 146.075 216 152.875C216 161.875 200 161.875 200 152.875L200 119.875L200 75.3751C200 -5.12486 88 -2.12486 88 75.3751L88.0001 119.875V142.875V153.875C88.0001 161.875 72.0001 161.875 72.0001 153.875Z" fill="#E9EEF2"/>
    <path d="M56 199.875L80 183.875L104 199.875V263.875H56V199.875Z" fill="#F7B030"/>
    <path d="M16 119.875L0 439.875H192L208 231.875H261.5L256.5 119.875H216V152.875C216 161.875 200 161.875 200 152.875V119.875H88V189.375L104 199.875V263.875H56V199.875L72 189.375V119.875H16Z" fill="#EB423F"/>
    <path d="M72 189.375L80 183.875L88 189.375V153.772C88 161.875 72 161.875 72 153.772V183.917V189.375Z" fill="#DADCDE"/>
    <path d="M287 231.875H261.5L256 119.875H280L287 231.875Z" fill="#D13330"/>
    <path d="M302 231.875H287L280 119.875H296L302 231.875Z" fill="#A82A27"/>
    <path d="M448 231.875H384.5L400 439.875H464L448 231.875Z" fill="#EBA72E"/>
    <path d="M424 231.875H408L424 390.375L399 426.875L400 439.875H410L432 405.875L455 439.875H464L462.5 420.375L440 390.375L424 231.875Z" fill="#E09F2C"/>
    <path d="M264 287.875C264 275.875 248 275.875 248 287.875V349.875C248 406.875 344 406.875 344 351.375V287.875C344 275.875 328 275.875 328 287.875V349.875C328 384.875 264 384.375 264 349.875V287.875Z" fill="white"/>
</svg>
